<?xml version="1.0" encoding="utf-8"?>
<!-- Generator: Adobe Illustrator 24.2.3, SVG Export Plug-In . SVG Version: 6.00 Build 0)  -->
<svg version="1.1" id="Layer_1" xmlns="http://www.w3.org/2000/svg" xmlns:xlink="http://www.w3.org/1999/xlink" x="0px" y="0px"
	 viewBox="0 0 512 512" style="enable-background:new 0 0 512 512;" xml:space="preserve">
<style type="text/css">
	.st0{fill:#DADDE0;}
	.st1{fill:#FFFFFF;}
	.st2{fill:#3E3E3E;stroke:#008B61;stroke-width:0.1;stroke-miterlimit:1;}
	.st3{fill:#00BF30;}
	.st4{fill:none;}
	.st5{fill:#6D6D6D;stroke:#008B61;stroke-width:0.1;stroke-miterlimit:1;}
</style>
<g>
	<path class="st0" d="M228.6,362.7c-0.3,0.3-0.6,0.5-0.9,0.7l0,0C228,363.2,228.3,363,228.6,362.7z"/>
	<path class="st0" d="M227.7,363.4L227.7,363.4C227.7,363.5,227.7,363.4,227.7,363.4C227.6,363.5,227.6,363.5,227.7,363.4z"/>
	<path class="st0" d="M225.6,364.5c0.7-0.3,1.4-0.7,2-1.1C227,363.9,226.3,364.2,225.6,364.5z"/>
	<path class="st0" d="M220,365.3c1.5,0.2,3.1,0,4.6-0.4c-1.1,0.3-2.2,0.5-3.3,0.5c-0.3,0-0.7,0-1-0.1
		C220.1,365.4,220.1,365.4,220,365.3z"/>
</g>
<g>
	<path class="st1" d="M221.2,365.4c-0.3,0-0.7,0-1-0.1C220.5,365.4,220.9,365.4,221.2,365.4z"/>
	<path class="st1" d="M220,365.3c0.1,0,0.1,0,0.2,0c-0.4,0-0.7-0.1-1-0.1C219.4,365.3,219.7,365.3,220,365.3z"/>
</g>
<g>
	<path class="st0" d="M220,365.3c-0.3,0-0.6-0.1-0.8-0.1c-0.1,0-0.2,0-0.3-0.1C219.2,365.2,219.6,365.3,220,365.3z"/>
	<path class="st0" d="M217.5,364.8c0.4,0.1,0.8,0.2,1.1,0.3c-0.2,0-0.3-0.1-0.5-0.1c-0.1,0-0.1,0-0.2-0.1
		C217.8,364.9,217.7,364.9,217.5,364.8z"/>
</g>
<g>
	<path class="st1" d="M218.2,365c0.2,0,0.3,0.1,0.5,0.1C218.5,365.1,218.3,365.1,218.2,365z"/>
	<path class="st1" d="M217.5,364.8c0.2,0.1,0.3,0.1,0.5,0.2c-0.3-0.1-0.5-0.1-0.8-0.2C217.3,364.7,217.4,364.8,217.5,364.8z"/>
</g>
<path class="st0" d="M217.5,364.8c-0.1,0-0.2-0.1-0.3-0.1h-0.1l0,0C217.3,364.7,217.4,364.7,217.5,364.8z"/>
<g transform="translate(0.000000,520.000000) scale(0.100000,-0.100000)">
	<path class="st2" d="M2314.7,5186.9c-453-56-806-181-1150-409c-951-627-1375-1795-1044-2874c89-293,234-573,417-810
		c117-151,282-328,366-393c16-12,37-29,46-39c63-58,266-198,288-198c7,0,12-4,12-10c0-5,6-10,14-10c7,0,19-7,26-15c7-8,16-12,21-9
		c5,3,9,1,9-4s15-15,33-22c17-8,40-20,51-29c10-9,21-16,25-15c3,0,44-17,90-38c46-21,102-46,125-54c82-30,285-92,318-98
		c18-3,62-12,98-20c257-59,663-61,970-7c141,25,430,109,454,132c6,5,17,9,26,9c18,0,287,131,345,169c22,14,51,31,63,38
		c41,22,207,140,239,170c17,16,46,41,64,55c84,64,277,267,362,378c47,63,137,197,137,206c0,4,6,12,14,18c8,6,34,49,58,96
		c25,47,53,99,64,115c10,16,18,30,17,32c-2,2,8,27,21,55c60,133,116,296,141,408c2,8,13,56,24,105c11,50,27,144,36,210
		c32,241,14,657-36,850c-6,22-17,67-26,100c-26,105-75,260-84,269c-5,6-9,16-9,24c0,7-18,51-40,98s-40,89-40,95c0,5-5,9-11,9
		c-5,0-8,3-6,8c3,4-13,36-34,72c-21,36-44,77-50,93c-6,15-15,27-20,27s-8,4-7,9c3,8-14,34-97,146c-22,30-56,76-75,102
		c-103,140-343,364-541,505c-329,233-731,388-1152,443C2758.7,5192.9,2402.7,5197.9,2314.7,5186.9z M3603.7,4374.9
		c38-42,49-116,50-331l1-205l46-60c97-127,149-250,174-415c22-143,18-260-21-522l-7-48h124c236,0,520-22,736-56
		c113-19,134-27,116-45c-9-9-35-8-115,5c-166,27-386,45-634,52l-231,7l-16-24c-30-42-24-46,106-53c162-9,383-32,504-51
		c133-21,347-73,370-90c38-28-16-29-131-2c-215,51-463,84-766,103c-121,7-115,10-181-92c-119-187-312-285-687-349l-103-18l44-46
		c105-108,118-173,122-596c1-199,7-340,13-355c6-14,40-54,76-89c36-36,66-68,66-73c0-5-12-13-27-19c-69-28-208,2-273,58
		c-74,64-74,61-80,413c-5,275-9,320-24,353c-10,20-22,37-27,37c-14,0-11-710,3-751c6-19,26-59,44-89c44-76,48-94,28-115
		c-13-13-27-15-56-11c-103,17-201,96-239,194c-21,55-23,73-27,430l-4,372h-24h-24v-227c0-126-5-302-11-393c-9-142-13-172-35-217
		c-53-110-212-196-272-146c-24,20-24,21,32,103c27,37,31,53,37,148c12,166,11,704-1,697c-6-3-18-21-27-38c-14-27-17-78-20-327
		c-5-345-7-354-88-429c-61-55-124-81-196-81c-116,0-127,37-35,112c101,81,101,81,103,315l2,203h-152c-289,0-387,54-497,273
		c-64,127-121,205-192,263c-29,24-56,44-59,44c-3,0-11,11-17,25c-17,36,15,55,93,55c85,0,149-39,235-145c161-198,221-235,390-242
		c81-3,103,0,150,19c48,21,55,27,66,64c17,58,41,103,84,155l38,45l-107,29c-202,54-336,97-406,129c-112,52-240,165-305,271
		c-12,20-33,38-48,42c-38,9-352-14-507-37c-71-11-206-36-298-56c-113-25-171-34-178-27c-11,11,139,56,308,93c125,27,370,58,531,66
		c136,7,141,9,126,49c-11,29-49,35-161,25c-59-5-247-19-418-30c-170-12-329-25-352-29c-41-8-53-6-53,9c0,20,84,32,415,59
		c198,17,399,33,446,36l86,7l-19,86c-24,114-35,427-19,531c17,107,61,202,157,336c30,42,35,55,30,85c-4,19-9,97-12,172
		c-6,120-4,150,15,231c29,127,43,141,130,134c87-6,213-49,303-103c173-103,205-109,378-79c224,39,511,39,723-1c44-9,91-13,104-9
		c14,3,93,40,176,81C3437.7,4385.9,3563.7,4418.9,3603.7,4374.9z"/>
	<path class="st2" d="M1953.7,3343.9c-222-34-371-182-406-403c-35-230,85-449,304-551c51-24,116-49,143-54c281-59,931-62,1149-6
		c204,52,340,183,387,374c20,79,17,251-5,325c-49,164-159,270-319,305c-47,11-117,11-375,1c-292-12-582-7-787,13
		C2022.7,3349.9,1981.7,3348.9,1953.7,3343.9z M2067.7,3053.9c108-66,109-305,2-377c-54-37-96-31-145,21c-63,65-81,158-49,253
		C1910.7,3056.9,1991.7,3099.9,2067.7,3053.9z M3197.7,3053.9c48-30,82-107,82-190c0-222-205-290-275-91c-33,96-10,206,56,266
		C3106.7,3079.9,3146.7,3084.9,3197.7,3053.9z"/>
</g>
<path class="st3" d="M470,394.9"/>
<path d="M598.9,274.4"/>
<polyline class="st4" points="215.3,290.6 216.3,291.3 247.6,302.5 331.1,295.3 354.4,265.4 354.4,230.2 "/>
<g id="Слой_2">
	<path class="st5" d="M464.3,108.8c-1.5-2-3.6-4.9-6.2-8.5c-24.5,23.2-49.1,46.4-73.6,69.5c0.7,2.7,1.6,6.2,2.3,10.3
		c1.4,7.7,1.8,13.6,1.9,15.2c0.4,6.7,0,11.7-0.3,16.1c-0.2,3.5-0.9,8.8-2.2,19.4c-0.4,3.2-0.5,3.6-0.6,4.2c-0.8,3.3-2,5.6-1.3,6.3
		c0.1,0.1,0.5,0.1,1.3,0.2c0.5,0,1.1,0.1,1.9,0.1c1.3,0,2.4-0.2,2.6-0.2c1.4-0.2,2.8-0.2,6.5-0.1c6.1,0.1,4.7,0,8.7,0.1
		c1.5,0,4.5,0.1,8.4,0.2c0.4,0,3.6,0.1,7.3,0.3c11.1,0.6,21.7,1.6,22.2,1.6c12.2,1.1,9.3,1.3,18.5,2.1c5.1,0.4,10.1,1.9,15.2,2.4
		c1.6,0.2,5.7,0.6,6,2.1c0.1,0.5-0.2,1-0.5,1.3c-0.5,0.6-1.3,0.6-2.9,0.6c-2.5-0.1-3.5-0.3-3.5-0.3c-2.9-0.7-6-0.9-9-1.4
		c-2.2-0.4-4.4-0.6-9-1.2c-9.5-1.2-17.1-1.7-21.9-2c-4.3-0.3-8.3-0.5-9-0.6c-0.5,0-2.5-0.1-5.1-0.3c-2.1-0.1-4.5-0.2-7.5-0.3
		c-2.1-0.1-6-0.2-13.6-0.4c-5.6-0.2-8.3-0.3-8.4-0.3c-1.2,0-2.1,0-3.6-0.1c-0.8-0.1-1.6-0.1-2.4-0.2c-1.7-0.2-2.2-0.3-2.6,0.1
		c-0.4,0.4-0.1,0.7-0.7,1.6c-0.3,0.5-0.5,0.5-0.9,1.2c-0.3,0.5-0.2,0.5-0.6,1c-0.5,0.8-0.8,0.9-0.8,1.3c0,0.3,0.2,0.5,0.4,0.7
		c0.5,0.5,1,0.7,1.1,0.7c2,0.7,3.7,0.6,3.7,0.6c1.7,0,3.4,0.3,5.2,0.4c0.2,0,3.6,0.2,10.4,0.7c4.5,0.3,7.7,0.6,13.9,1.2
		c1.2,0.1,7.1,0.7,13.8,1.5c3.1,0.4,5.2,0.6,6.3,0.8c0,0,2.8,0.4,5.2,0.7c4.9,0.7,9.5,1.7,16.6,3.1c1.7,0.3,10.7,2.1,19.4,4.9
		c1,0.3,4.9,1.6,4.8,2.6c-0.1,0.5-0.9,0.9-1.5,1c-0.4,0.1-0.8,0.1-1.6,0c-1.3-0.1-2-0.2-2-0.2c-3.9-0.6-6-1-6-1
		c-1.4-0.3-6.9-1.5-17.9-3.8c-5.9-1.2-10.9-1.9-20.8-3.3c-7.5-1-13.5-1.6-16.6-2c-6.2-0.6-4.5-0.3-12.8-1.1
		c-2.7-0.3-6.9-0.7-11.6-0.8c-2.4-0.1-1.8,0-4-0.1c-3.7-0.1-4.7-0.4-6.2,0.2c-1.3,0.5-2.2,1.3-3,2c-1.3,1.2-1.8,2.2-3.5,4.8
		c-0.8,1.3-1.7,2.6-2.6,4c-3.7,5.8-8.7,10.2-10.2,11.5c-3.1,2.7-5.7,4.4-7.2,5.3c-3.8,2.4-7,3.9-9.2,5c-3.9,1.8-7.1,2.9-9.2,3.7
		c-2.3,0.8-4,1.3-5.2,1.7c-0.9,0.3-3.8,1.1-8.1,2.2c-1.3,0.3-5.2,1.3-9.1,2.1c-11.9,2.3-19.6,1.9-19.8,3.6c0,0.3,0.2,0.3,1.6,1.7
		c0,0,1.6,1.6,4.3,4.5c1.1,1.2,2.1,2.3,3.2,3.9c0.5,0.7,2,2.9,3.4,6.2c1.4,3.4,1.9,6.2,2.4,9.1c0.3,2,0.5,3.4,0.7,5.6
		c0.2,1.8,0.3,3.4,0.5,7.8c0.2,4.2,0.3,6.3,0.4,9.3c0.1,3.5,0.1,6,0.2,11.1c0.1,9.2,0.2,15.4,0.3,22.2c0.1,7.8,0.1,2.8,0.3,9.1
		c0.1,3.7,0,0.2,0.3,5.2c0.1,2.4,0.2,3.1,0.5,4c0.1,0.4,0.5,1.4,2.8,3.8c1.4,1.5,1.7,1.6,4.8,4.6c0.8,0.7,1.9,1.8,3.2,3.3
		c0.5,0.6,1,1.3,2.1,2.8c0.8,1.2,1.1,1.6,1,2.1c-0.1,0.2-0.3,0.7-1.7,1.2c-1.7,0.6-3.2,0.6-3.5,0.6c-3.8-0.1-3.2,0.4-6.3,0.2
		c-4.1-0.3-7.2-1.3-9-1.9c-1.4-0.5-2.9-1-4.9-2c-1.9-1-3.1-1.9-4.7-3.1c-2.1-1.6-3.2-2.5-4.1-3.8c-0.7-1.1-1.1-2.1-1.5-3.2
		c-0.6-1.7-0.9-3.5-1.3-7.3c-0.2-2.9-0.3-5-0.3-5.7c-0.3-8.2-0.3-10.6-0.3-10.6c-0.1-5.6-0.2-9.7-0.3-15.5
		c-0.3-14.4-0.5-12.8-0.4-15.7c0,0,0-2.6-0.2-6.5c0-0.4-0.1-1.6-0.4-3.2c-0.2-1.2-0.3-2.1-0.7-3.1c-0.3-0.9-0.6-1.5-1.2-2.7
		c0-0.1-0.4-0.8-1.1-1.7c-0.6-0.7-0.8-0.8-0.9-0.7c-0.2,0.1-0.2,0.3-0.3,1.3c-0.1,0.9-0.1,1.3-0.1,1.5c0,2.2-0.2,4.3-0.3,6.5
		c-0.1,7.3-0.2,5.5-0.2,18c0,4,0,10.8,0.1,18.3c0,0,0.1,6.9,0.2,12.8c0,0.6,0,1.2,0,1.2c0,0,0,1.4,0.1,2.7c0.1,2.5,0.2,5,0.2,5
		c0.3,6.4,0.5,7.1,0.6,7.7c0.4,1.2,0.9,2.3,1.6,3.6c0.1,0.3,0.6,1.3,1.7,3.3c2.4,4.4,3.4,6.1,3.4,6.1s0.7,1.2,1.4,3.3
		c0.1,0.4,0.3,1,0.3,1.7c-0.1,0.7-0.3,1.2-0.5,1.6c-0.4,0.7-0.9,1-1.1,1.2c-0.1,0.1-0.7,0.5-1.7,0.7c-0.6,0.1-1.1,0.1-1.9,0.1
		c-0.5,0-1.2-0.1-2.3-0.3c-1.4-0.3-2.4-0.6-3.2-0.9c-0.6-0.2-1.3-0.4-2.3-0.8c-0.2-0.1-1.3-0.5-2.6-1.2c-0.8-0.4-2.2-1.2-3.8-2.4
		c-0.2-0.2-0.5-0.4-0.9-0.7c-1.7-1.3-3-2.6-3.6-3.2c-2.3-2.4-3.7-4.6-4.1-5.2c-1.2-1.8-1.9-3.4-2.2-4.2c0,0-0.5-1.2-0.9-2.5
		c-2.3-7.2-1.9-27-1.9-27c0-1,0,0.3-0.2-15.6c-0.1-4.8-0.1-12.6-0.2-22.1c-0.1-5.1-0.1-4.9-0.1-5.1c0-2.9,0.1-3.3,0-4.6
		c-0.1-1.2-0.2-1.5-0.1-2.4c0.1-0.8,0.4-1.5,0.1-1.7c-0.2-0.1-0.4,0-1.1,0c-0.2,0-0.6,0-1.3,0c-1.7,0-2.1-0.3-2.4,0
		c-0.2,0.2-0.1,0.5,0,1.5c0.1,1.1,0,1.1,0,2.6c0,1.3,0.1,1.4,0.2,2.4c0.1,1.5-0.1,2.7-0.2,3c-0.4,3-0.2,20.5-0.2,29.1
		c0,3.9-0.5,13.2-1.5,31.7c0,0.5-0.1,2.4-0.5,4.8c-0.3,1.9-0.5,3.6-1.2,5.8c-0.4,1.1-0.9,2.8-2,4.7c-1.3,2.2-2.7,3.7-4.4,5.4
		c-0.7,0.7-1.5,1.5-2.6,2.5c-0.6,0.5-2.2,1.8-4.6,3.1c-1.5,0.8-3.6,2-6.5,2.8c-3.3,0.9-4.9,0.5-5.5,0.4c-1.6-0.4-2.5-1.1-2.7-1.4
		c-0.4-0.4-1.4-1.3-1.5-2.5c0-0.7,0.5-1.6,1.7-3.3c1.9-2.9,2.1-3.2,2.1-3.2c2-2.9,2.1-3.1,2.3-3.5c0.6-1.1,1.1-2.4,1.5-4.2
		c1-4.7,1-10.6,1.1-14.5c0.1-5.2,0.2-3.8,0.3-11.7c0-1.9,0.1-5,0.1-9.7c0.2-16.6-0.2-16.3,0-26.9c0-2.9-0.2-5.8-0.2-8.7
		c0-4,0-6.4-0.6-6.6c-0.6-0.1-1.5,1.7-2,2.6c-1.5,3-1.8,5.6-1.8,5.8c-1.2,12-0.8,22.7-0.8,22.7c0,0,0.1,3.8-0.8,30.4
		c0,0.7-0.1,2.5-0.5,4.8c-0.2,1.3-0.5,2.8-1.2,4.6c-1.1,2.8-2.6,4.7-3.4,5.7c-1.9,2.3-3.7,3.6-5.5,5c-1.4,1.1-3.3,2.4-6,3.6
		c-2.4,1.1-4.3,1.5-5.1,1.7c-0.4,0.1-2.4,0.5-5.1,0.6c-1.4,0.1-2.4,0-3.2,0c-2.1-0.1-3.1-0.2-4.1-0.5c-0.6-0.2-3-1.1-3.3-2.8
		c-0.1-0.5,0.1-1,0.5-1.9c0.2-0.6,0.6-1.3,1.4-2.2c0.7-0.9,1.4-1.4,2.8-2.5c1.6-1.3,1.7-1.2,2.7-2.1c0.8-0.7,0.9-1,1.8-1.7
		c1-0.8,1.4-1,2-1.5c1.1-0.9,1.7-1.9,2.4-3c0.7-1.2,1.5-3,2.1-6c0.4-2,0.5-3.5,0.6-7.7c0.1-4.5,0.1-7.4,0.1-7.4
		c0.1-16.8,0-16.6,0.1-17.1c0.3-1.6-0.1-3.3,0.1-4.9c0-0.5,0.1-1.3-0.3-1.7c-0.5-0.5-1.4-0.2-2.1,0c0,0-1.7,0-5.1,0
		c-5.6,0-8.4,0-8.5,0c-2.8,0-2.4-0.1-9.3-0.3c-3.3-0.1-3.3-0.1-4-0.1c-1-0.1-4.2-0.4-8.4-1.6c-3.8-1.1-8.4-2.5-13.3-6.2
		c-3.6-2.8-7-7.5-7-7.5c0,0-56.2,42.7-91,69c5.1,6.1,10.2,12.2,15.4,18.3c11.6,10.7,23.2,21.3,34.8,32l48,27.9l37.8,13.5l47.4,7.8
		h46.7l44.2-9.5l50.8-21.1l43.3-30.1l27.3-27.2l20.6-27.7l17.3-29.6l11-28.4l7.6-28.4l5.2-26.7l0.9-31.8l-4-36.9
		c-0.6-5.7-1.6-11.9-3.1-18.6c-1.1-4.8-2.3-9.3-3.6-13.4c-2.3-7.9-5.3-16.7-9.3-26c-3.3-7.7-6.8-14.7-10.2-20.9
		c-1.2-2.1-2.2-3.8-2.8-4.9c-1.7-3.1-2.4-4.7-4.2-7.7c-0.7-1.2-1.3-2.1-1.7-2.8C469.4,115.6,467.2,112.7,464.3,108.8z"/>
	<path class="st5" d="M304.4,422.9"/>
	<path class="st5" d="M614.7,447.4"/>
	<path class="st5" d="M295.1,236c0.6-3.2,4-5.1,4.7-9c0.1-0.4,0.3-1.9,1.1-3.6c0.5-1,0.9-1.7,1.3-2.2c1.6-2.6,4.6-7.2,9-8.3
		c0.4-0.1,2.6-0.6,4.3-0.2c0.2,0.1,1.6,0.5,1.6,0.5c0,0,2.5-1.6,4.6-2.8c1.2-0.7,2.1-1.3,2.9-1.8c0,0,0.6-0.4,1.2-0.8
		c4.9-3.1,7.4-4.7,9.1-6c1.8-1.3,4-2.2,5.6-3.7c0.1-0.1,0.5-0.5,1-0.5c0.8,0,1.4,1.2,2,2.2c1.1,1.9,0.8,0.8,2.8,3.8
		c0.8,1.3,2.7,4.2,4.2,7.5c0.9,2,2.5,6.2,3.5,13.3c0.8,6.5,2.1,16.2-1.6,27.9c-1.3,4.2-4,12.6-11.5,20.2c-4,4.1-7.8,6.4-10.2,7.8
		c-7.8,4.7-14.8,6.3-20.2,7.5c-6.5,1.4-11.7,1.8-22.1,2.4c-3.7,0.2-6.8,0.3-12.9,0.6c-7.6,0.3-11.4,0.4-15.5,0.4
		c-4.9,0-10.5-0.3-21.6-0.8c-3.8-0.2-3.9-0.2-5.2-0.3c-1.9-0.1-3.2-0.2-4.3-0.2c-3.2-0.2-4.8-0.2-4.8-0.4
		c-0.9-1.2,16.5-16.3,75.8-62.5c-0.3,1.7-0.7,4.3-0.6,7.5c0.1,3.2,0.6,12.5,7.1,17.2c0.9,0.7,4.2,3.1,8.4,2.6
		c1.4-0.1,2.5-0.6,3.1-0.8c4.1-1.7,6.1-5.2,7.2-7c0.4-0.6,3.2-5.4,3.2-11.7c0-2.5-0.4-4.8-0.6-5.9c-0.2-1.4-0.5-3-1.3-5.1
		c-0.5-1.3-1.1-3.1-2.5-5.1c-0.6-0.9-1.4-2-2.8-3.2c-0.6-0.5-1.6-1.4-3.1-2c-1.2-0.5-2.2-0.7-2.5-0.8c-2.2-0.4-3.9,0.1-4.3,0.2
		c-1.3,0.4-2.2,0.9-2.8,1.3c-1.1,0.7-1.8,1.3-2.3,1.8c-0.5,0.5-1.6,1.6-2.8,3.3c-1.3,1.9-1.9,3.6-2.5,5.2c-0.4,1.1-1.1,2.9-1.5,5.2
		c-0.2,1-0.9,5.6,0.7,11.2c1.6,5.5,4.7,9,4.6,9.1C304.4,250.2,293.9,242.5,295.1,236z"/>
	<path class="st5" d="M207,300.6c0.6,0.1,1.9,0.6,4.1,1.1c2.9,0.6,4.4,0.6,4.6,1.2c0.1,0.5-0.7,1-2.2,2.6c-0.7,0.7-1.3,1.5-2.5,3
		c-0.8,1-2.3,2.9-3.6,5.3c-1.1,1.9-1.8,3.4-2.6,5.5c-2.4,5.6-1.9,6.5-3.4,7.9c-0.7,0.7-2.5,1.3-6.1,2.5c-2.4,0.8-3.6,1.2-5.1,1.5
		c-1.4,0.3-2.7,0.3-6.6,0.1c-5.4-0.3-8-0.4-11.2-1c-0.6-0.1-3-0.6-6.1-1.8c-1.9-0.7-2.8-1.1-3-1.4c-0.8-2.4,12.4-5.5,25.5-16.1
		C192.7,307.9,202.4,299.4,207,300.6z"/>
	<path class="st5" d="M664.4,516.4"/>
</g>
</svg>
